<?xml version="1.0" encoding="UTF-8"?>
<svg xmlns="http://www.w3.org/2000/svg" xmlns:xlink="http://www.w3.org/1999/xlink" viewBox="0 0 240 240" width="240px" height="240px">
<g id="surface478692">
<path style=" stroke:none;fill-rule:nonzero;fill:rgb(38.039216%,38.039216%,38.039216%);fill-opacity:1;" d="M 195 124.230469 L 45 124.230469 L 45 98.65625 C 45 66.261719 71.261719 40 103.65625 40 L 136.339844 40 C 168.738281 40 195 66.261719 195 98.65625 Z M 195 124.230469 "/>
<path style=" stroke:none;fill-rule:nonzero;fill:rgb(100%,67.058825%,56.862748%);fill-opacity:1;" d="M 120 210 C 81.339844 210 50 178.660156 50 140 L 50 102.136719 C 50 73.339844 73.339844 50 102.136719 50 L 137.871094 50 C 166.660156 50 190 73.339844 190 102.136719 L 190 140 C 190 178.660156 158.660156 210 120 210 Z M 120 210 "/>
<path style=" stroke:none;fill-rule:nonzero;fill:rgb(93.333334%,93.333334%,93.333334%);fill-opacity:1;" d="M 130 210 L 110 210 C 76.863281 210 50 183.136719 50 150 L 50 130 L 190 130 L 190 150 C 190 183.136719 163.136719 210 130 210 Z M 130 210 "/>
<path style=" stroke:none;fill-rule:nonzero;fill:rgb(81.176472%,84.705883%,86.274511%);fill-opacity:1;" d="M 90 170 L 100 170 L 100 205 L 90 205 Z M 90 170 "/>
<path style=" stroke:none;fill-rule:nonzero;fill:rgb(81.176472%,84.705883%,86.274511%);fill-opacity:1;" d="M 115 170 L 125 170 L 125 205 L 115 205 Z M 115 170 "/>
<path style=" stroke:none;fill-rule:nonzero;fill:rgb(81.176472%,84.705883%,86.274511%);fill-opacity:1;" d="M 140 170 L 150 170 L 150 205 L 140 205 Z M 140 170 "/>
<path style=" stroke:none;fill-rule:nonzero;fill:rgb(100%,67.058825%,56.862748%);fill-opacity:1;" d="M 180 140 L 180 150 C 180 177.570312 157.570312 200 130 200 L 110 200 C 82.429688 200 60 177.570312 60 150 L 60 140 L 180 140 M 190 130 L 50 130 L 50 150 C 50 183.136719 76.863281 210 110 210 L 130 210 C 163.136719 210 190 183.136719 190 150 Z M 190 130 "/>
<path style=" stroke:none;fill-rule:nonzero;fill:rgb(29.803923%,68.627453%,31.37255%);fill-opacity:1;" d="M 50.191406 47.5 L 80.503906 30 L 85.503906 38.660156 L 55.191406 56.160156 Z M 50.191406 47.5 "/>
<path style=" stroke:none;fill-rule:nonzero;fill:rgb(25.882354%,25.882354%,25.882354%);fill-opacity:1;" d="M 45.699219 61.640625 L 94.996094 33.179688 L 104.996094 50.5 L 55.699219 78.960938 Z M 45.699219 61.640625 "/>
<path style=" stroke:none;fill-rule:nonzero;fill:rgb(29.803923%,68.627453%,31.37255%);fill-opacity:1;" d="M 184.804688 56.160156 L 154.496094 38.660156 L 159.496094 30 L 189.804688 47.5 Z M 184.804688 56.160156 "/>
<path style=" stroke:none;fill-rule:nonzero;fill:rgb(25.882354%,25.882354%,25.882354%);fill-opacity:1;" d="M 184.300781 78.960938 L 135.007812 50.503906 L 145.007812 33.183594 L 194.300781 61.640625 Z M 184.300781 78.960938 "/>
<path style=" stroke:none;fill-rule:nonzero;fill:rgb(100%,80.000001%,73.725492%);fill-opacity:1;" d="M 121.714844 112.496094 C 114.320312 112.496094 105.273438 109.925781 99.730469 106.246094 C 94.203125 102.589844 89.921875 100 85 100 C 81.109375 100 77.339844 101.121094 74.09375 103.230469 C 70.625 105.480469 65.976562 104.515625 63.714844 101.039062 C 61.449219 97.570312 62.429688 92.925781 65.898438 90.660156 C 71.589844 86.960938 78.195312 85 85 85 C 94.816406 85 102.445312 90.054688 108.015625 93.746094 C 110.75 95.554688 116.90625 97.496094 121.714844 97.496094 C 124.515625 97.496094 129.378906 95.558594 131.699219 93.898438 C 137.851562 89.5 145.414062 85.003906 154.933594 85.003906 C 161.738281 85.003906 168.34375 86.964844 174.03125 90.671875 C 177.5 92.933594 178.480469 97.578125 176.214844 101.050781 C 173.953125 104.515625 169.304688 105.503906 165.835938 103.238281 C 162.59375 101.125 158.824219 100.011719 154.929688 100.011719 C 149.664062 100.011719 144.84375 102.941406 140.425781 106.105469 C 136.839844 108.664062 128.894531 112.496094 121.714844 112.496094 Z M 121.714844 112.496094 "/>
<path style=" stroke:none;fill-rule:nonzero;fill:rgb(93.725491%,42.352942%,0%);fill-opacity:1;" d="M 120 170 C 142.761719 171.601562 157.839844 189.546875 175 190 L 190 190 L 185 175 L 205 170 L 230 165 L 205 150 L 235 135 L 215 125 L 235 75 L 205 90 L 190 95 C 186.90625 111.285156 178.613281 120.851562 170 130 L 120 136.289062 Z M 120 170 "/>
<path style=" stroke:none;fill-rule:nonzero;fill:rgb(90.196079%,31.764707%,0%);fill-opacity:1;" d="M 135 160 C 135 160 151.664062 149.164062 170 150 C 188.335938 150.835938 225 165 225 165 L 185 175 C 168.335938 166.664062 151.664062 161.664062 135 160 Z M 135 160 "/>
<path style=" stroke:none;fill-rule:nonzero;fill:rgb(90.196079%,31.764707%,0%);fill-opacity:1;" d="M 235 75 C 218.660156 105.066406 201.058594 129.820312 180 140 C 191.664062 143.335938 200 146.664062 205 150 L 235 135 L 215 125 Z M 235 75 "/>
<path style=" stroke:none;fill-rule:nonzero;fill:rgb(93.725491%,42.352942%,0%);fill-opacity:1;" d="M 120 170 C 97.238281 171.601562 82.160156 189.546875 65 190 L 50 190 L 55 175 L 35 170 L 10 165 L 35 150 L 5 135 L 25 125 L 5 75 L 35 90 L 50 95 C 53.09375 111.285156 61.386719 120.851562 70 130 L 120 136.289062 Z M 120 170 "/>
<path style=" stroke:none;fill-rule:nonzero;fill:rgb(90.196079%,31.764707%,0%);fill-opacity:1;" d="M 105 160 C 105 160 88.335938 149.164062 70 150 C 51.664062 150.835938 15 165 15 165 L 55 175 C 71.664062 166.664062 88.335938 161.664062 105 160 Z M 105 160 "/>
<path style=" stroke:none;fill-rule:nonzero;fill:rgb(90.196079%,31.764707%,0%);fill-opacity:1;" d="M 5 75 C 21.339844 105.066406 38.941406 129.820312 60 140 C 48.335938 143.335938 40 146.664062 35 150 L 5 135 L 25 125 Z M 5 75 "/>
<path style=" stroke:none;fill-rule:nonzero;fill:rgb(100%,54.11765%,39.607844%);fill-opacity:1;" d="M 112.375 161.015625 L 90 134.644531 L 108.484375 113.300781 C 114.558594 106.285156 125.441406 106.285156 131.515625 113.300781 L 150 134.644531 L 127.625 161.015625 C 123.628906 165.71875 116.371094 165.71875 112.375 161.015625 Z M 112.375 161.015625 "/>
<path style=" stroke:none;fill-rule:nonzero;fill:rgb(37.64706%,49.019608%,54.509807%);fill-opacity:1;" d="M 143.144531 119.644531 C 127.570312 113.414062 112.429688 113.414062 96.855469 119.644531 L 93.144531 110.359375 C 110.960938 103.230469 129.039062 103.230469 146.855469 110.359375 Z M 143.144531 119.644531 "/>
<path style=" stroke:none;fill-rule:nonzero;fill:rgb(18.039216%,19.215687%,57.254905%);fill-opacity:1;" d="M 105 120 C 105 131.046875 96.046875 140 85 140 C 73.953125 140 65 131.046875 65 120 C 65 108.953125 73.953125 100 85 100 C 96.046875 100 105 108.953125 105 120 Z M 105 120 "/>
<path style=" stroke:none;fill-rule:nonzero;fill:rgb(18.039216%,19.215687%,57.254905%);fill-opacity:1;" d="M 102.199219 130.101562 C 100.550781 133.050781 98.050781 135.550781 95.101562 137.199219 L 67.800781 109.898438 C 69.449219 106.949219 71.949219 104.449219 74.898438 102.800781 Z M 102.199219 130.101562 "/>
<path style=" stroke:none;fill-rule:nonzero;fill:rgb(77.254903%,79.215688%,91.37255%);fill-opacity:1;" d="M 102.199219 130.101562 C 100.550781 133.050781 98.050781 135.550781 95.101562 137.199219 L 67.800781 109.898438 C 69.449219 106.949219 71.949219 104.449219 74.898438 102.800781 Z M 102.199219 130.101562 "/>
<path style=" stroke:none;fill-rule:nonzero;fill:rgb(18.039216%,19.215687%,57.254905%);fill-opacity:1;" d="M 175 120 C 175 131.046875 166.046875 140 155 140 C 143.953125 140 135 131.046875 135 120 C 135 108.953125 143.953125 100 155 100 C 166.046875 100 175 108.953125 175 120 Z M 175 120 "/>
<path style=" stroke:none;fill-rule:nonzero;fill:rgb(77.254903%,79.215688%,91.37255%);fill-opacity:1;" d="M 172.199219 130.101562 C 170.550781 133.050781 168.050781 135.550781 165.101562 137.199219 L 137.800781 109.898438 C 139.449219 106.949219 141.949219 104.449219 144.898438 102.800781 Z M 172.199219 130.101562 "/>
</g>
</svg>
